<svg width="390" height="420" viewBox="0 0 390 420" fill="none" xmlns="http://www.w3.org/2000/svg"><g opacity="0.75" clip-path="url(#clip0_0_10)"><path d="M0 367.5C1.98822 367.5 3.6 365.888 3.6 363.9C3.6 361.912 1.98822 360.3 0 360.3C-1.98823 360.3 -3.6 361.912 -3.6 363.9C-3.6 365.888 -1.98823 367.5 0 367.5Z" fill="#E2701F"/><path d="M318.5 142.5C319.936 142.5 321.1 141.336 321.1 139.9C321.1 138.464 319.936 137.3 318.5 137.3C317.064 137.3 315.9 138.464 315.9 139.9C315.9 141.336 317.064 142.5 318.5 142.5Z" fill="#E2701F"/><path d="M361.935 279.438C365.171 282.993 364.526 285.58 360 287.2C355.474 288.82 354.829 291.407 358.065 294.962" stroke="#12A2BF" stroke-width="2.5" stroke-linecap="round"/><path d="M356.334 188.533L358.083 187.563C359.05 187.027 359.399 185.81 358.863 184.844L354.985 177.847C354.449 176.881 353.232 176.532 352.266 177.067L350.517 178.037C349.55 178.573 349.201 179.79 349.737 180.756L353.615 187.753C354.151 188.719 355.368 189.068 356.334 188.533Z" fill="#E2701F"/><path d="M54.6855 151.811C59.4849 151.533 61.0897 153.663 59.5 158.2C57.9103 162.737 59.5151 164.867 64.3145 164.589" stroke="#E2701F" stroke-width="2.5" stroke-linecap="round"/><path d="M91 362.9C93.0987 362.9 94.8 361.199 94.8 359.1C94.8 357.001 93.0987 355.3 91 355.3C88.9013 355.3 87.2 357.001 87.2 359.1C87.2 361.199 88.9013 362.9 91 362.9Z" fill="#F0BC4E"/><path d="M344.622 91.1201L342.681 90.6363C341.609 90.3691 340.524 91.0213 340.257 92.093L338.321 99.8554C338.054 100.927 338.706 102.013 339.778 102.28L341.719 102.764C342.791 103.031 343.876 102.379 344.143 101.307L346.079 93.5446C346.346 92.4728 345.694 91.3874 344.622 91.1201Z" fill="#D94A85"/><path d="M59.9 88.5C61.4464 88.5 62.7 87.2464 62.7 85.7C62.7 84.1536 61.4464 82.9 59.9 82.9C58.3536 82.9 57.1 84.1536 57.1 85.7C57.1 87.2464 58.3536 88.5 59.9 88.5Z" fill="#9AA4F4"/><path d="M186.062 253.765C184.443 258.291 181.855 258.936 178.3 255.7C174.745 252.464 172.157 253.109 170.538 257.635" stroke="#5B4FE0" stroke-width="2.5" stroke-linecap="round"/><path d="M350.439 356.509L349.153 354.977C348.443 354.131 347.182 354.021 346.336 354.731L340.207 359.873C339.361 360.583 339.251 361.845 339.961 362.691L341.247 364.223C341.957 365.069 343.218 365.179 344.064 364.469L350.193 359.327C351.039 358.617 351.149 357.355 350.439 356.509Z" fill="#D94A85"/><path d="M102.043 88.1838L102.76 86.3166C103.156 85.2854 102.641 84.1286 101.609 83.7327L94.1408 80.8658C93.1096 80.4699 91.9527 80.985 91.5569 82.0162L90.8401 83.8834C90.4443 84.9146 90.9594 86.0714 91.9906 86.4673L99.4592 89.3342C100.49 89.7301 101.647 89.215 102.043 88.1838Z" fill="#5B4FE0"/><path d="M151.831 355.89L151.761 353.891C151.723 352.787 150.797 351.924 149.693 351.962L141.698 352.241C140.594 352.28 139.73 353.206 139.769 354.31L139.839 356.309C139.877 357.413 140.803 358.276 141.907 358.238L149.902 357.959C151.006 357.92 151.87 356.994 151.831 355.89Z" fill="#5B4FE0"/><path d="M348.119 269.642C351.059 265.838 353.719 266.024 356.1 270.2C358.481 274.376 361.141 274.562 364.081 270.758" stroke="#9AA4F4" stroke-width="2.5" stroke-linecap="round"/><path d="M77.9584 383.728L79.0182 382.031C79.6035 381.095 79.3187 379.861 78.3819 379.276L71.5976 375.036C70.6608 374.451 69.427 374.736 68.8416 375.672L67.7818 377.369C67.1964 378.305 67.4813 379.539 68.418 380.124L75.2024 384.364C76.1391 384.949 77.373 384.664 77.9584 383.728Z" fill="#F0BC4E"/><path d="M275.769 351.833C274.713 356.523 272.223 357.479 268.3 354.7C264.377 351.921 261.887 352.877 260.831 357.567" stroke="#5B4FE0" stroke-width="2.5" stroke-linecap="round"/><path d="M393.264 374.419L392.78 372.478C392.513 371.406 391.427 370.754 390.355 371.021L382.593 372.957C381.521 373.224 380.869 374.309 381.136 375.381L381.62 377.322C381.887 378.394 382.973 379.046 384.045 378.779L391.807 376.843C392.879 376.576 393.531 375.491 393.264 374.419Z" fill="#D94A85"/><path d="M288.558 347.31L287.072 345.972C286.251 345.233 284.986 345.299 284.247 346.12L278.894 352.065C278.155 352.886 278.221 354.151 279.042 354.89L280.528 356.228C281.349 356.967 282.614 356.901 283.353 356.08L288.706 350.135C289.445 349.314 289.379 348.049 288.558 347.31Z" fill="#E2701F"/><path d="M345.9 247.6C347.667 247.6 349.1 246.167 349.1 244.4C349.1 242.633 347.667 241.2 345.9 241.2C344.133 241.2 342.7 242.633 342.7 244.4C342.7 246.167 344.133 247.6 345.9 247.6Z" fill="#E2701F"/><path d="M278.326 192.868C283.134 192.842 284.625 195.052 282.8 199.5C280.975 203.948 282.466 206.158 287.274 206.132" stroke="#17A968" stroke-width="2.5" stroke-linecap="round"/><path d="M246.6 350.6C248.146 350.6 249.4 349.346 249.4 347.8C249.4 346.254 248.146 345 246.6 345C245.054 345 243.8 346.254 243.8 347.8C243.8 349.346 245.054 350.6 246.6 350.6Z" fill="#9AA4F4"/><path d="M174.2 118.3C176.133 118.3 177.7 116.733 177.7 114.8C177.7 112.867 176.133 111.3 174.2 111.3C172.267 111.3 170.7 112.867 170.7 114.8C170.7 116.733 172.267 118.3 174.2 118.3Z" fill="#12A2BF"/><path d="M37.1274 313.029C35.5869 317.583 33.0111 318.274 29.4 315.1C25.7889 311.926 23.2131 312.617 21.6726 317.171" stroke="#D94A85" stroke-width="2.5" stroke-linecap="round"/><path d="M265.6 380.3C267.754 380.3 269.5 378.554 269.5 376.4C269.5 374.246 267.754 372.5 265.6 372.5C263.446 372.5 261.7 374.246 261.7 376.4C261.7 378.554 263.446 380.3 265.6 380.3Z" fill="#5B4FE0"/><path d="M352.722 66.6201L350.781 66.1363C349.709 65.8691 348.624 66.5213 348.357 67.593L346.421 75.3554C346.154 76.4272 346.806 77.5126 347.878 77.7798L349.819 78.2637C350.891 78.5309 351.976 77.8787 352.243 76.8069L354.179 69.0446C354.446 67.9728 353.794 66.8874 352.722 66.6201Z" fill="#5B4FE0"/><path d="M33.1571 69.1825L35.1267 68.8352C36.2145 68.6434 36.9408 67.6061 36.749 66.5183L35.3598 58.6398C35.168 57.552 34.1307 56.8257 33.0429 57.0175L31.0733 57.3648C29.9855 57.5566 29.2592 58.5939 29.451 59.6817L30.8402 67.5602C31.032 68.648 32.0693 69.3743 33.1571 69.1825Z" fill="#12A2BF"/><path d="M52.1 131.2C54.5853 131.2 56.6 129.185 56.6 126.7C56.6 124.215 54.5853 122.2 52.1 122.2C49.6147 122.2 47.6 124.215 47.6 126.7C47.6 129.185 49.6147 131.2 52.1 131.2Z" fill="#12A2BF"/><path d="M51.5474 124.672L49.8331 123.642C48.8863 123.073 47.6575 123.379 47.0886 124.326L42.9683 131.184C42.3994 132.13 42.7058 133.359 43.6526 133.928L45.3669 134.958C46.3137 135.527 47.5425 135.221 48.1113 134.274L52.2317 127.416C52.8005 126.47 52.4942 125.241 51.5474 124.672Z" fill="#12A2BF"/><path d="M94.6716 370.028L96.1579 368.69C96.9788 367.951 97.0451 366.686 96.306 365.865L90.9529 359.92C90.2138 359.099 88.9492 359.033 88.1284 359.772L86.6421 361.11C85.8212 361.849 85.7549 363.114 86.494 363.935L91.8471 369.88C92.5862 370.701 93.8508 370.767 94.6716 370.028Z" fill="#D94A85"/></g><defs><clipPath id="clip0_0_10"><rect width="390" height="420" fill="white"/></clipPath></defs></svg>
